<svg xmlns="http://www.w3.org/2000/svg" viewBox="0 0 689.96 146.69"><defs><style>.cls-1{fill:#5e5ba8;}.cls-2{fill:#f2b41c;}.cls-3{fill:#5ab87a;}.cls-4{fill:#ea4439;}.cls-5{fill:#343a40;}</style></defs><g id="Layer_2" data-name="Layer 2"><g id="Layer_1-2" data-name="Layer 1"><polygon class="cls-1" points="70.25 30.24 0 63.57 0 44.63 70.25 0 70.25 30.24"/><polygon class="cls-2" points="70.13 30.24 156.27 43.96 156.27 16.46 70.13 0 70.13 30.24"/><polygon class="cls-1" points="68.93 90.14 1.32 105.92 1.32 82.3 68.93 56.9 68.93 90.14"/><polygon class="cls-3" points="68.81 90.14 154.94 94.24 154.94 67.74 68.81 56.9 68.81 90.14"/><polygon class="cls-1" points="70.25 146.69 1.32 145.91 1.32 123.29 70.25 118.45 70.25 146.69"/><polygon class="cls-4" points="70.13 146.69 153.62 144.17 153.62 117.67 70.13 118.45 70.13 146.69"/><path class="cls-2" d="M503.52,23.39A8.24,8.24,0,0,0,498.89,22H421.81V39.05h57.84l-56.46,62.84a8.43,8.43,0,0,0-2.07,4.33,7.64,7.64,0,0,0,.69,4.79,8.67,8.67,0,0,0,3.18,3.71,8.17,8.17,0,0,0,4.63,1.42h76.95V99.06H448.86l56.33-62.83a7.82,7.82,0,0,0,2.11-4.3,8.73,8.73,0,0,0-.59-4.83A8.82,8.82,0,0,0,503.52,23.39Z"/><path class="cls-3" d="M591.41,53.46A22.44,22.44,0,0,0,584,47.52a24.29,24.29,0,0,0-11.17-2.36H542a27.12,27.12,0,0,0-7.75,1.25,22.59,22.59,0,0,0-13.75,11.52,23.66,23.66,0,0,0-2.4,11.13V92.17a23.8,23.8,0,0,0,2.4,11.19,22.65,22.65,0,0,0,13.75,11.53,27.47,27.47,0,0,0,7.75,1.25h30.79a26.54,26.54,0,0,0,10.54-2.3,24.75,24.75,0,0,0,5.09-3.06,19.86,19.86,0,0,0,4.27-4.53,23.07,23.07,0,0,0,2.95-6.17,25.88,25.88,0,0,0,1.12-7.91V69.06a27.11,27.11,0,0,0-1.28-7.82A23.59,23.59,0,0,0,591.41,53.46ZM579.72,92.17A7.09,7.09,0,0,1,578,97.29a6.91,6.91,0,0,1-5.19,1.77H542.16A7.05,7.05,0,0,1,537,97.29a6.94,6.94,0,0,1-1.77-5.12V69.06A6.83,6.83,0,0,1,537,64a7.12,7.12,0,0,1,5.19-1.74h30.66A7.11,7.11,0,0,1,578,63.94q1.77,1.71,1.77,5.25Z"/><path class="cls-4" d="M688.52,66.37a29.5,29.5,0,0,0-3.91-8.11,27.11,27.11,0,0,0-5.65-6,34.1,34.1,0,0,0-6.69-4.07,32.68,32.68,0,0,0-7.09-2.33,34.61,34.61,0,0,0-6.8-.72H619.9a8.77,8.77,0,0,0-3.35.65,8.6,8.6,0,0,0-2.75,1.81A8.06,8.06,0,0,0,612,50.31a8.37,8.37,0,0,0-.66,3.32v62.51h17.07V62.23h29.88a15.9,15.9,0,0,1,5.74,1,13.46,13.46,0,0,1,4.63,2.92,14,14,0,0,1,3.12,4.56,15,15,0,0,1,1.15,6v39.4H690V76.74A34.61,34.61,0,0,0,688.52,66.37Z"/><path class="cls-5" d="M182.78,131a5.47,5.47,0,0,1-1.8,4.41,7.69,7.69,0,0,1-5.12,1.53h-1.62v6.34h-3.79V125.4h5.7a7.6,7.6,0,0,1,4.94,1.39A5.11,5.11,0,0,1,182.78,131Zm-8.54,2.83h1.24a4.11,4.11,0,0,0,2.61-.68,2.41,2.41,0,0,0,.87-2,2.49,2.49,0,0,0-.72-2,3.45,3.45,0,0,0-2.28-.63h-1.72Z"/><path class="cls-5" d="M192.44,136.4v6.84h-3.79V125.4h5.2a9,9,0,0,1,5.39,1.32,5.28,5.28,0,0,1,.87,6.82,5.71,5.71,0,0,1-2.45,1.93q4,6,5.25,7.77h-4.2l-4.26-6.84Zm0-3.08h1.22a4.68,4.68,0,0,0,2.65-.6,2.15,2.15,0,0,0,.85-1.88,2,2,0,0,0-.87-1.81,5.42,5.42,0,0,0-2.71-.53h-1.14Z"/><path class="cls-5" d="M223.85,134.3q0,4.42-2.19,6.81a9.53,9.53,0,0,1-12.6,0q-2.2-2.38-2.2-6.84t2.21-6.8a9.6,9.6,0,0,1,12.6,0C223.13,129.06,223.85,131.33,223.85,134.3Zm-13,0a7.5,7.5,0,0,0,1.13,4.5,4,4,0,0,0,3.4,1.51q4.53,0,4.53-6c0-4-1.5-6-4.51-6a4,4,0,0,0-3.4,1.53A7.37,7.37,0,0,0,210.83,134.3Z"/><path class="cls-5" d="M242.38,131a5.47,5.47,0,0,1-1.8,4.41,7.69,7.69,0,0,1-5.12,1.53h-1.62v6.34h-3.79V125.4h5.7a7.6,7.6,0,0,1,4.94,1.39A5.11,5.11,0,0,1,242.38,131Zm-8.54,2.83h1.24a4.11,4.11,0,0,0,2.61-.68,2.41,2.41,0,0,0,.87-2,2.46,2.46,0,0,0-.73-2,3.4,3.4,0,0,0-2.27-.63h-1.72Z"/><path class="cls-5" d="M258.53,143.24H248.25V125.4h10.28v3.1H252v3.91h6v3.11h-6v4.6h6.49Z"/><path class="cls-5" d="M268.54,136.4v6.84h-3.79V125.4H270a9,9,0,0,1,5.39,1.32,5.3,5.3,0,0,1,.88,6.82,5.8,5.8,0,0,1-2.46,1.93q4,6,5.25,7.77h-4.2l-4.26-6.84Zm0-3.08h1.22a4.68,4.68,0,0,0,2.65-.6,2.13,2.13,0,0,0,.85-1.88,2,2,0,0,0-.87-1.81,5.39,5.39,0,0,0-2.71-.53h-1.14Z"/><path class="cls-5" d="M290.64,143.24h-3.78V128.55H282V125.4h13.48v3.15h-4.85Z"/><path class="cls-5" d="M306.29,132.75,310,125.4h4.08l-5.92,10.9v6.94h-3.76v-6.82l-5.92-11h4.1Z"/><path class="cls-5" d="M335.39,143.24l-4.3-14H331c.15,2.85.23,4.75.23,5.7v8.3h-3.38V125.4H333L337.2,139h.08l4.48-13.64h5.15v17.84h-3.53V134.8c0-.4,0-.86,0-1.38s.07-1.91.16-4.15h-.11l-4.6,14Z"/><path class="cls-5" d="M364.83,143.24l-1.3-4.24H357l-1.3,4.24h-4.07L358,125.32h4.63l6.32,17.92Zm-2.2-7.42q-1.8-5.77-2-6.53c-.15-.5-.26-.9-.32-1.2-.27,1-1,3.62-2.31,7.73Z"/><path class="cls-5" d="M389.48,143.24h-4.81l-7.76-13.5h-.11c.15,2.39.23,4.09.23,5.1v8.4h-3.38V125.4h4.77l7.75,13.36h.09q-.18-3.48-.18-4.92V125.4h3.4Z"/><path class="cls-5" d="M407.4,143.24,406.1,139h-6.5l-1.3,4.24h-4.07l6.3-17.92h4.62l6.33,17.92Zm-2.2-7.42q-1.8-5.77-2-6.53c-.15-.5-.26-.9-.32-1.2-.27,1-1,3.62-2.31,7.73Z"/><path class="cls-5" d="M423,133.22h7.08v9.25a19.48,19.48,0,0,1-3.24.79,21.28,21.28,0,0,1-3.11.23,7.84,7.84,0,0,1-6.17-2.38q-2.13-2.37-2.13-6.81a9,9,0,0,1,2.47-6.74,9.39,9.39,0,0,1,6.85-2.42,13.32,13.32,0,0,1,5.3,1.1l-1.26,3a9,9,0,0,0-4.06-1,5,5,0,0,0-3.93,1.65,6.36,6.36,0,0,0-1.48,4.43,7.14,7.14,0,0,0,1.19,4.44,4.13,4.13,0,0,0,3.46,1.53,11.82,11.82,0,0,0,2.41-.25v-3.72H423Z"/><path class="cls-5" d="M447.1,143.24H436.83V125.4H447.1v3.1h-6.49v3.91h6v3.11h-6v4.6h6.49Z"/><path class="cls-5" d="M460.88,143.24l-4.29-14h-.11c.15,2.85.23,4.75.23,5.7v8.3h-3.38V125.4h5.15L462.7,139h.08l4.47-13.64h5.16v17.84h-3.53V134.8c0-.4,0-.86,0-1.38s.06-1.91.16-4.15H469l-4.6,14Z"/><path class="cls-5" d="M489.68,143.24H479.4V125.4h10.28v3.1h-6.5v3.91h6.05v3.11h-6.05v4.6h6.5Z"/><path class="cls-5" d="M511.73,143.24h-4.81l-7.76-13.5h-.11c.16,2.39.23,4.09.23,5.1v8.4H495.9V125.4h4.77l7.76,13.36h.08q-.18-3.48-.18-4.92V125.4h3.4Z"/><path class="cls-5" d="M525.61,143.24h-3.78V128.55H517V125.4h13.48v3.15h-4.85Z"/><path class="cls-5" d="M555.23,138.29a4.62,4.62,0,0,1-1.74,3.81,7.6,7.6,0,0,1-4.84,1.39,11.3,11.3,0,0,1-5-1.08V138.9a21.16,21.16,0,0,0,3.06,1.13,9,9,0,0,0,2.29.33,3.33,3.33,0,0,0,1.91-.47,1.64,1.64,0,0,0,.66-1.42,1.58,1.58,0,0,0-.29-.93,3.17,3.17,0,0,0-.86-.79,21.67,21.67,0,0,0-2.32-1.21,10.65,10.65,0,0,1-2.45-1.48,5.65,5.65,0,0,1-1.31-1.65,4.71,4.71,0,0,1-.48-2.19,4.6,4.6,0,0,1,1.6-3.72,6.64,6.64,0,0,1,4.44-1.36,10.4,10.4,0,0,1,2.65.33,17.93,17.93,0,0,1,2.65.93l-1.22,2.94a18.92,18.92,0,0,0-2.37-.82,7.77,7.77,0,0,0-1.83-.23,2.45,2.45,0,0,0-1.65.5,1.66,1.66,0,0,0-.58,1.31,1.58,1.58,0,0,0,.24.87,2.43,2.43,0,0,0,.74.72,21.73,21.73,0,0,0,2.39,1.25,9.5,9.5,0,0,1,3.43,2.4A4.66,4.66,0,0,1,555.23,138.29Z"/><path class="cls-5" d="M577.17,134.3c0,2.95-.74,5.22-2.2,6.81a9.53,9.53,0,0,1-12.6,0c-1.46-1.59-2.2-3.87-2.2-6.84s.74-5.24,2.21-6.8a9.62,9.62,0,0,1,12.61,0Q577.17,129.85,577.17,134.3Zm-13,0a7.43,7.43,0,0,0,1.14,4.5,4,4,0,0,0,3.39,1.51q4.53,0,4.53-6c0-4-1.5-6-4.51-6a4,4,0,0,0-3.4,1.53A7.37,7.37,0,0,0,564.14,134.3Z"/><path class="cls-5" d="M583.36,143.24V125.4h3.79v14.72h7.24v3.12Z"/><path class="cls-5" d="M614.51,125.4v11.54a6.66,6.66,0,0,1-.88,3.47,5.76,5.76,0,0,1-2.56,2.28,9.1,9.1,0,0,1-4,.8,7.56,7.56,0,0,1-5.35-1.77,6.23,6.23,0,0,1-1.9-4.82V125.4h3.77v10.92a4.53,4.53,0,0,0,.83,3,3.45,3.45,0,0,0,2.74,1,3.38,3.38,0,0,0,2.7-1,4.62,4.62,0,0,0,.83-3V125.4Z"/><path class="cls-5" d="M628.27,143.24h-3.79V128.55h-4.84V125.4h13.47v3.15h-4.84Z"/><path class="cls-5" d="M638.36,143.24V125.4h3.79v17.84Z"/><path class="cls-5" d="M665.34,134.3c0,2.95-.74,5.22-2.2,6.81a9.53,9.53,0,0,1-12.6,0c-1.46-1.59-2.2-3.87-2.2-6.84s.74-5.24,2.21-6.8a9.62,9.62,0,0,1,12.61,0Q665.34,129.85,665.34,134.3Zm-13,0a7.43,7.43,0,0,0,1.14,4.5,4,4,0,0,0,3.39,1.51q4.53,0,4.53-6c0-4-1.5-6-4.51-6a4,4,0,0,0-3.4,1.53A7.37,7.37,0,0,0,652.31,134.3Z"/><path class="cls-5" d="M687.37,143.24h-4.81l-7.77-13.5h-.11q.24,3.58.24,5.1v8.4h-3.38V125.4h4.77l7.75,13.36h.08q-.18-3.48-.18-4.92V125.4h3.41Z"/><rect class="cls-1" x="170.16" y="45.16" width="17.07" height="70.98"/><path class="cls-1" d="M303,55a20.29,20.29,0,0,0-4.27-4.53,24.52,24.52,0,0,0-5.09-3,26.08,26.08,0,0,0-5.35-1.74,24.73,24.73,0,0,0-5.12-.56H260v5.25a25.07,25.07,0,0,0-7.74-4,25.88,25.88,0,0,0-7.62-1.25H213.89a8.69,8.69,0,0,0-6.11,2.46,8.21,8.21,0,0,0-1.84,2.69,8.37,8.37,0,0,0-.66,3.32v62.51h17.08V62.23h22.19A7.2,7.2,0,0,1,249.8,64a6.83,6.83,0,0,1,1.77,5.09v47.08h17.08V69.06a26,26,0,0,0-.86-6.83h15.37q3.48,0,5.15,1.74A7.05,7.05,0,0,1,290,69.06v47.08h17.07V69.06a25.9,25.9,0,0,0-1.12-7.88A23.16,23.16,0,0,0,303,55Z"/><path class="cls-1" d="M394.58,53.46a22.24,22.24,0,0,0-7.42-5.94A24.22,24.22,0,0,0,376,45.16H345.21a27.07,27.07,0,0,0-7.75,1.25,22.61,22.61,0,0,0-7.78,4.1,23,23,0,0,0-6,7.42,23.66,23.66,0,0,0-2.39,11.13V92.17a23.8,23.8,0,0,0,2.39,11.19,22.88,22.88,0,0,0,6,7.42,22.63,22.63,0,0,0,7.78,4.11,27.42,27.42,0,0,0,7.75,1.25H376a26.63,26.63,0,0,0,10.54-2.3,25,25,0,0,0,5.09-3.06,19.86,19.86,0,0,0,4.27-4.53,23.37,23.37,0,0,0,3-6.17A26.19,26.19,0,0,0,400,92.17V69.06a27.11,27.11,0,0,0-1.28-7.82A23.81,23.81,0,0,0,394.58,53.46ZM382.89,92.17a7.13,7.13,0,0,1-1.7,5.12A6.91,6.91,0,0,1,376,99.06H345.34a7,7,0,0,1-5.19-1.77,6.94,6.94,0,0,1-1.77-5.12V69.06A6.83,6.83,0,0,1,340.15,64a7.11,7.11,0,0,1,5.19-1.74H376a7.09,7.09,0,0,1,5.12,1.71q1.77,1.71,1.77,5.25Z"/><rect class="cls-2" x="170.16" y="22.72" width="17.07" height="17.07"/></g></g></svg>
